HIERARCHY
ROOT Hips
{
  OFFSET 5.80788e-005 67.184 3.4734
  CHANNELS 6 Xposition Yposition Zposition Zrotation Xrotation Yrotation
  JOINT Chest
  {
    OFFSET 0 8.7983 -4.7612
    CHANNELS 3 Zrotation Xrotation Yrotation
    JOINT Chest2
    {
      OFFSET 0 8.0291 0.4195
      CHANNELS 3 Zrotation Xrotation Yrotation
      JOINT Chest3
      {
        OFFSET 0 9.9351 -2.2114
        CHANNELS 3 Zrotation Xrotation Yrotation
        JOINT Neck
        {
          OFFSET 0 22.3885 -0.4656
          CHANNELS 3 Zrotation Xrotation Yrotation
          JOINT Head
          {
            OFFSET -0.0001 12.643 3.4389
            CHANNELS 3 Zrotation Xrotation Yrotation
            End Site
            {
              OFFSET 0.0001 17.6655 0.5274
            }
          }
        }
        JOINT LeftCollar
        {
          OFFSET 2.2603 21.606 7.4023
          CHANNELS 3 Zrotation Xrotation Yrotation
          JOINT LeftShoulder
          {
            OFFSET 13.5163 -1.1332 -5.0146
            CHANNELS 3 Zrotation Xrotation Yrotation
            JOINT LeftElbow
            {
              OFFSET -0.0995 -28.05 -0.2431
              CHANNELS 3 Zrotation Xrotation Yrotation
              JOINT LeftWrist
              {
                OFFSET 0.0679 -23.3996 -0.1402
                CHANNELS 3 Zrotation Xrotation Yrotation
                JOINT LeftFinger1
                {
                  OFFSET 0.7932 -9.069 2.5189
                  CHANNELS 3 Zrotation Xrotation Yrotation
                  JOINT LeftFinger11
                  {
                    OFFSET -0.8272 -3.3923 0.5977
                    CHANNELS 3 Zrotation Xrotation Yrotation
                    JOINT LeftFinger12
                    {
                      OFFSET -0.5649 -2.3158 0.4082
                      CHANNELS 3 Zrotation Xrotation Yrotation
                      End Site
                      {
                        OFFSET -0.4919 -1.6479 0.2673
                      }
                    }
                  }
                }
                JOINT LeftFinger2
                {
                  OFFSET 0.9159 -9.2044 0.2193
                  CHANNELS 3 Zrotation Xrotation Yrotation
                  JOINT LeftFinger21
                  {
                    OFFSET 0.0117 -4.1944 -0.0248
                    CHANNELS 3 Zrotation Xrotation Yrotation
                    JOINT LeftFinger22
                    {
                      OFFSET 0.0071 -2.3249 -0.0142
                      CHANNELS 3 Zrotation Xrotation Yrotation
                      End Site
                      {
                        OFFSET -0.1475 -2.0882 0.0028
                      }
                    }
                  }
                }
                JOINT LeftFinger3
                {
                  OFFSET 0.6113 -8.7231 -2.0637
                  CHANNELS 3 Zrotation Xrotation Yrotation
                  JOINT LeftFinger31
                  {
                    OFFSET -0.1927 -3.8059 -0.2383
                    CHANNELS 3 Zrotation Xrotation Yrotation
                    JOINT LeftFinger32
                    {
                      OFFSET -0.1091 -2.1688 -0.1362
                      CHANNELS 3 Zrotation Xrotation Yrotation
                      End Site
                      {
                        OFFSET -0.2358 -1.9176 -0.0906
                      }
                    }
                  }
                }
                JOINT LeftFinger4
                {
                  OFFSET -0.6151 -8.0947 -3.5641
                  CHANNELS 3 Zrotation Xrotation Yrotation
                  JOINT LeftFinger41
                  {
                    OFFSET -0.4882 -2.341 -0.6462
                    CHANNELS 3 Zrotation Xrotation Yrotation
                    JOINT LeftFinger42
                    {
                      OFFSET -0.3575 -1.7167 -0.4742
                      CHANNELS 3 Zrotation Xrotation Yrotation
                      End Site
                      {
                        OFFSET -0.4187 -1.5237 -0.3496
                      }
                    }
                  }
                }
                JOINT LeftFinger0
                {
                  OFFSET -1.42 -1.8761 1.4223
                  CHANNELS 3 Zrotation Xrotation Yrotation
                  JOINT LeftFinger01
                  {
                    OFFSET -1.1471 -3.4929 2.6334
                    CHANNELS 3 Zrotation Xrotation Yrotation
                    JOINT LeftFinger02
                    {
                      OFFSET -0.823 -2.3 1.6571
                      CHANNELS 3 Zrotation Xrotation Yrotation
                      End Site
                      {
                        OFFSET -0.5822 -1.6914 1.1582
                      }
                    }
                  }
                }
              }
            }
          }
        }
        JOINT RightCollar
        {
          OFFSET -2.2603 21.606 7.4023
          CHANNELS 3 Zrotation Xrotation Yrotation
          JOINT RightShoulder
          {
            OFFSET -13.5187 -1.1334 -5.0155
            CHANNELS 3 Zrotation Xrotation Yrotation
            JOINT RightElbow
            {
              OFFSET 0.0994 -28.0499 -0.2431
              CHANNELS 3 Zrotation Xrotation Yrotation
              JOINT RightWrist
              {
                OFFSET -0.0679 -23.3996 -0.1402
                CHANNELS 3 Zrotation Xrotation Yrotation
                JOINT RightFinger1
                {
                  OFFSET -0.7932 -9.0691 2.5189
                  CHANNELS 3 Zrotation Xrotation Yrotation
                  JOINT RightFinger11
                  {
                    OFFSET 0.8272 -3.3923 0.5977
                    CHANNELS 3 Zrotation Xrotation Yrotation
                    JOINT RightFinger12
                    {
                      OFFSET 0.565 -2.3158 0.4082
                      CHANNELS 3 Zrotation Xrotation Yrotation
                      End Site
                      {
                        OFFSET 0.4919 -1.6479 0.2673
                      }
                    }
                  }
                }
                JOINT RightFinger2
                {
                  OFFSET -0.916 -9.2044 0.2193
                  CHANNELS 3 Zrotation Xrotation Yrotation
                  JOINT RightFinger21
                  {
                    OFFSET -0.0117 -4.1944 -0.0248
                    CHANNELS 3 Zrotation Xrotation Yrotation
                    JOINT RightFinger22
                    {
                      OFFSET -0.0071 -2.3249 -0.0142
                      CHANNELS 3 Zrotation Xrotation Yrotation
                      End Site
                      {
                        OFFSET 0.1475 -2.0882 0.0028
                      }
                    }
                  }
                }
                JOINT RightFinger3
                {
                  OFFSET -0.6113 -8.7231 -2.0637
                  CHANNELS 3 Zrotation Xrotation Yrotation
                  JOINT RightFinger31
                  {
                    OFFSET 0.1927 -3.8059 -0.2383
                    CHANNELS 3 Zrotation Xrotation Yrotation
                    JOINT RightFinger32
                    {
                      OFFSET 0.1091 -2.1688 -0.1362
                      CHANNELS 3 Zrotation Xrotation Yrotation
                      End Site
                      {
                        OFFSET 0.2358 -1.9176 -0.0906
                      }
                    }
                  }
                }
                JOINT RightFinger4
                {
                  OFFSET 0.6151 -8.0947 -3.564
                  CHANNELS 3 Zrotation Xrotation Yrotation
                  JOINT RightFinger41
                  {
                    OFFSET 0.4882 -2.341 -0.6462
                    CHANNELS 3 Zrotation Xrotation Yrotation
                    JOINT RightFinger42
                    {
                      OFFSET 0.3574 -1.7166 -0.4742
                      CHANNELS 3 Zrotation Xrotation Yrotation
                      End Site
                      {
                        OFFSET 0.4187 -1.5237 -0.3496
                      }
                    }
                  }
                }
                JOINT RightFinger0
                {
                  OFFSET 1.4199 -1.8761 1.4221
                  CHANNELS 3 Zrotation Xrotation Yrotation
                  JOINT RightFinger01
                  {
                    OFFSET 1.1472 -3.4929 2.6336
                    CHANNELS 3 Zrotation Xrotation Yrotation
                    JOINT RightFinger02
                    {
                      OFFSET 0.8229 -2.3 1.6571
                      CHANNELS 3 Zrotation Xrotation Yrotation
                      End Site
                      {
                        OFFSET 0.5822 -1.6914 1.1582
                      }
                    }
                  }
                }
              }
            }
          }
        }
      }
    }
  }
  JOINT RightHip
  {
    OFFSET -9.412 3.9771 -0.7758
    CHANNELS 3 Zrotation Xrotation Yrotation
    JOINT RightKnee
    {
      OFFSET -0.7531 -40.938 0
      CHANNELS 3 Zrotation Xrotation Yrotation
      JOINT RightAnkle
      {
        OFFSET 0 -40.1986 0
        CHANNELS 3 Zrotation Xrotation Yrotation
        JOINT RightToe
        {
          OFFSET 0 -4.4182 9.239
          CHANNELS 3 Zrotation Xrotation Yrotation
          End Site
          {
            OFFSET 0 0 6.1981
          }
        }
      }
    }
  }
  JOINT LeftHip
  {
    OFFSET 9.4119 3.9773 -0.7758
    CHANNELS 3 Zrotation Xrotation Yrotation
    JOINT LeftKnee
    {
      OFFSET 0.7532 -40.9383 0
      CHANNELS 3 Zrotation Xrotation Yrotation
      JOINT LeftAnkle
      {
        OFFSET 0 -40.1986 0
        CHANNELS 3 Zrotation Xrotation Yrotation
        JOINT LeftToe
        {
          OFFSET 0 -4.4182 9.239
          CHANNELS 3 Zrotation Xrotation Yrotation
          End Site
          {
            OFFSET 0 0 6.1981
          }
        }
      }
    }
  }
}
MOTION
Frames:	4
Frame Time:	0.0333333
5.80788e-005 78.5254 3.4734 0 0 -0 0 0 -0 0 0 -0 0 0 -0 0 0 -0 0 0 -0 0 0 -12.5014 88.1196 14.2451 10.6914 -0.00160068 -0.00239207 0.000740045 -8.4365e-005 7.00714e-005 -9.52055e-007 9.93923e-017 -1.98785e-016 -1.59028e-015 9.93923e-017 -5.96354e-016 -1.59028e-015 -9.93923e-017 -5.96354e-016 -1.59028e-015 9.93923e-017 -1.98785e-016 -1.59028e-015 -0.0128176 0.00232552 8.52707e-005 9.93923e-017 5.96354e-016 -0 9.93923e-017 -1.98785e-016 -1.59028e-015 -0.0160551 0.00299681 0.000857156 -2.48481e-016 0 3.18055e-015 9.93923e-017 -1.98785e-016 -1.59028e-015 -0.0125865 0.0031206 0.00282719 0 1.98785e-016 -0 9.93923e-017 -1.98785e-016 -1.59028e-015 9.93923e-017 -5.96354e-016 -1.59028e-015 -9.93923e-017 -5.96354e-016 -1.59028e-015 -0.865644 0.16582 7.03859 -88.0329 10.2057 -10.5567 0.0015593 -0.00248883 -0.000788628 7.87605e-005 4.10553e-005 1.24965e-005 -3.97569e-016 -7.95139e-016 3.18055e-015 -1.98785e-016 -3.97569e-016 3.18055e-015 -1.98785e-016 0 3.18055e-015 -3.97569e-016 -7.95139e-016 3.18055e-015 0.0129473 0.00231697 -8.70038e-005 9.93923e-017 -7.95139e-016 1.59028e-015 -3.97569e-016 -7.95139e-016 3.18055e-015 0.0163314 0.00303369 -0.000872333 3.97569e-016 7.95139e-016 -3.18055e-015 -3.97569e-016 -7.95139e-016 3.18055e-015 0.0145763 0.00367772 -0.00326275 9.93923e-017 -3.97569e-016 -0 -3.97569e-016 -7.95139e-016 3.18055e-015 -1.98785e-016 -3.97569e-016 3.18055e-015 -1.98785e-016 0 3.18055e-015 3.4248 1.369 -0.0640251 0.000190474 0.692919 0.00145812 -3.42573 -2.06197 -0.0607404 -1.10968e-024 9.47879e-023 1.85133e-025 -3.42484 1.35492 0.0638735 -0.000213973 0.719875 -0.00111157 3.42583 -2.07484 0.0613174 -1.3179e-023 0 -1.48106e-024 
2.36286 1.09177 82.185 117.661 -75.3762 -63.373 0.382631 -4.27536 -0.148604 0.757273 -8.55167 -0.269628 0.757273 -8.55166 -0.26963 4.04476e-006 10.8431 -1.40992e-006 8.4263e-007 -60.6913 1.85961e-006 30.8378 -39.4428 0.602716 50.6134 -36.1749 32.1028 84.9399 -82.8586 101.658 -11.0481 26.0107 12.5816 -3.18055e-015 1.59028e-015 -2.38542e-015 6.62086e-031 6.36111e-015 -5.96354e-015 -3.21857e-006 7.82292e-006 -5.2439e-007 -3.18055e-015 1.59028e-015 -2.38542e-015 -0.0128538 0.00234747 8.64503e-005 -7.67797e-007 1.03166e-006 -3.40286e-006 -3.18055e-015 1.59028e-015 -2.38542e-015 -0.0160521 0.00300877 0.000874321 -2.79753e-006 3.68915e-007 -2.09487e-006 -3.18055e-015 1.59028e-015 -2.38542e-015 -0.012646 0.00312341 0.00284083 -6.36111e-015 -1.59028e-015 3.57812e-015 -3.18055e-015 1.59028e-015 -2.38542e-015 6.62086e-031 6.36111e-015 -5.96354e-015 -3.21857e-006 7.82292e-006 -5.2439e-007 -31.9896 -39.1886 -6.1718 -47.3906 -38.8085 -27.8104 -85.8209 -82.1897 -103.569 10.4688 26.8135 -11.8449 3.18055e-015 1.39149e-015 -5.96354e-016 3.18055e-015 -1.39149e-015 1.59028e-015 -0 -6.95746e-015 -0 3.18055e-015 1.39149e-015 -5.96354e-016 0.0129625 0.00232792 -9.03918e-005 -3.18055e-015 4.96962e-015 7.95139e-016 3.18055e-015 1.39149e-015 -5.96354e-016 0.0163337 0.00304483 -0.000888262 6.36111e-015 0 -2.88238e-015 3.18055e-015 1.39149e-015 -5.96354e-016 0.0145782 0.00368943 -0.00326725 1.36555e-031 2.18663e-015 -3.57812e-015 3.18055e-015 1.39149e-015 -5.96354e-016 3.18055e-015 -1.39149e-015 1.59028e-015 -0 -6.95746e-015 -0 -3.06486 -0.646922 -4.43413 -165.559 68.8686 161.375 -3.41945 55.8129 -8.39854 -1.62242e-006 -2.60133e-008 9.18364e-008 5.11163 -2.83983 4.36039 164.743 69.9058 -161.518 5.30348 55.3762 7.0172 -8.25778e-007 7.37116e-008 1.94827e-007 
0.461876 5.89556 77.0316 -90.3963 -89.7304 89.3514 0.35901 -3.86996 -0.133589 0.711395 -7.74064 -0.243642 0.711397 -7.74067 -0.243643 2.51859e-006 10.7284 -1.22125e-006 -1.12717e-007 -59.4752 -4.89584e-007 28.3301 -37.0889 -0.314269 52.6379 -32.5523 30.4019 74.1309 -77.7797 90.2539 -10.3104 24.22 11.7577 3.18055e-015 -7.95139e-016 1.98785e-016 6.36111e-015 1.19271e-015 -0 6.36111e-015 -7.95139e-016 -2.98177e-015 3.18055e-015 -7.95139e-016 1.98785e-016 -0.0127988 0.0023296 7.45821e-005 9.9217e-006 -4.04232e-006 1.1149e-005 3.18055e-015 -7.95139e-016 1.98785e-016 -0.016057 0.0029944 0.000853946 -3.18055e-015 0 -5.96354e-016 3.18055e-015 -7.95139e-016 1.98785e-016 -0.0126141 0.00312688 0.00283022 -6.36111e-015 -7.95139e-016 8.54774e-015 3.18055e-015 -7.95139e-016 1.98785e-016 6.36111e-015 1.19271e-015 -0 6.36111e-015 -7.95139e-016 -2.98177e-015 -29.4752 -36.834 -5.25839 -49.8939 -35.3277 -26.5204 -75.1172 -77.1217 -92.3837 9.78664 24.9689 -11.0745 1.37935e-032 -7.95139e-016 9.93923e-016 -2.87571e-006 -3.38526e-007 -1.86401e-006 3.18055e-015 2.38542e-015 -7.55382e-015 1.37935e-032 -7.95139e-016 9.93923e-016 0.0129405 0.00230589 -8.52221e-005 -3.18055e-015 -3.97569e-015 -4.96962e-015 1.37935e-032 -7.95139e-016 9.93923e-016 0.0163398 0.00304802 -0.00088024 3.18055e-015 -7.95139e-016 -5.1684e-015 1.37935e-032 -7.95139e-016 9.93923e-016 0.0145829 0.0036887 -0.00326244 3.18055e-015 9.54166e-015 2.60408e-014 1.37935e-032 -7.95139e-016 9.93923e-016 -2.87571e-006 -3.38526e-007 -1.86401e-006 3.18055e-015 2.38542e-015 -7.55382e-015 -2.66809 -0.488652 -3.87688 -159.197 75.9067 155.757 -4.56485 51.5513 -6.81369 -1.50774e-006 2.4001e-006 -1.14291e-006 4.57135 -2.51533 3.83921 157.952 76.8931 -155.384 6.13296 51.1306 5.68077 2.16104e-006 -1.07289e-007 -3.02185e-006 
0.461876 5.89556 77.0316 -90.3963 -89.7304 89.3514 0.359516 -3.7663 -0.132982 0.712568 -7.53341 -0.243008 0.712569 -7.53341 -0.243008 -3.34203e-007 11.3208 2.02667e-007 9.74502e-007 -62.273 1.484e-006 28.6499 -37.3292 0.0891072 52.6379 -32.5524 30.4019 74.1308 -77.7797 90.2537 -10.3104 24.22 11.7577 3.50812e-007 5.66689e-007 -1.53332e-006 -5.10044e-006 -7.32398e-007 1.27045e-006 6.36111e-015 1.98785e-015 6.75868e-015 3.50812e-007 5.66689e-007 -1.53332e-006 -0.0127901 0.00232045 8.30556e-005 -1.23204e-006 6.08277e-007 -1.62099e-006 3.50812e-007 5.66689e-007 -1.53332e-006 -0.0160332 0.00298639 0.000857284 -3.51078e-007 7.07189e-006 1.53331e-006 3.50812e-007 5.66689e-007 -1.53332e-006 -0.0125601 0.00314017 0.00282925 -4.04712e-006 1.17532e-006 -3.32988e-006 3.50812e-007 5.66689e-007 -1.53332e-006 -5.10044e-006 -7.32398e-007 1.27045e-006 6.36111e-015 1.98785e-015 6.75868e-015 -29.7947 -37.071 -5.66442 -49.8939 -35.3277 -26.5204 -75.1171 -77.1216 -92.3836 9.78667 24.9689 -11.0745 -6.36111e-015 -2.38542e-015 -4.37326e-015 -3.18055e-015 -1.59028e-015 9.93923e-016 -3.18055e-015 2.38542e-015 -0 -6.36111e-015 -2.38542e-015 -4.37326e-015 0.012945 0.00232188 -8.53749e-005 -6.36111e-015 7.95139e-016 -1.78906e-015 -6.36111e-015 -2.38542e-015 -4.37326e-015 0.0163166 0.00301955 -0.000871209 -3.18055e-015 -1.59028e-015 -9.93923e-016 -6.36111e-015 -2.38542e-015 -4.37326e-015 0.0145726 0.00366941 -0.00327368 -3.18055e-015 2.38542e-015 8.74653e-015 -6.36111e-015 -2.38542e-015 -4.37326e-015 -3.18055e-015 -1.59028e-015 9.93923e-016 -3.18055e-015 2.38542e-015 -0 -2.66809 -0.488652 -3.87688 -159.197 75.9067 155.757 -4.56485 51.5513 -6.81369 -7.38024e-007 -6.45938e-006 -1.49715e-006 4.57135 -2.51533 3.83921 157.952 76.8931 -155.384 6.13296 51.1306 5.68077 1.07991e-006 6.11174e-006 1.23215e-006 
